# xmcd
#
# Track frame offsets: 
#        150
#        17970
#        37890
#        61719
#        83392
#        99946
#        120673
#        142621
#        164090
#        184078
#
# Disc length: 2790 seconds
#
# Revision: 0
# Processed by: cddbd v1.5.2PL0 Copyright (c) Steve Scherf et al.
# Submitted via: ExactAudioCopyFreeDBPlugin 1.0
#
DISCID=6e0ae40a
DTITLE=Natalie Beridze - Guliagava 
DYEAR=2016
DGENRE=Blues
TTITLE0=For Love
TTITLE1=Fisherman 2015
TTITLE2=Hello
TTITLE3=Light Is Winning
TTITLE4=Museum On Your Back
TTITLE5=Those Things
TTITLE6=Tore Up All My Maps
TTITLE7=Docha With Fading Grey
TTITLE8=Black Spring
TTITLE9=Opening Niight
EXTD=
EXTT0=
EXTT1=
EXTT2=
EXTT3=
EXTT4=
EXTT5=
EXTT6=
EXTT7=
EXTT8=
EXTT9=
PLAYORDER=
